/* XPM */
static char * taskbarbg_xpm[] = {
"4 25 4 1",
" 	c None",
".	c #CCCCCC",
"+	c #FFFFFF",
"@	c #666699",
"....",
"....",
"....",
"..+.",
"...@",
"+...",
".@..",
"..+.",
"...@",
"+...",
".@..",
"..+.",
"...@",
"+...",
".@..",
"..+.",
"...@",
"+...",
".@..",
"..+.",
"...@",
"....",
"....",
"....",
"@@@@"};
