/* XPM */
static char * linux_xpm[] = {
"32 20 2 1",
" 	c #508CD7",
".	c #DCF5FF",
"                                ",
"                                ",
"                                ",
"                                ",
" .      ...  .   . .   . .   .  ",
" .       .   ..  . .   .  . .   ",
" .       .   . . . .   .   .    ",
" .       .   .  .. .   .  . .   ",
" .....  ...  .   .  ...  .   .  ",
"                                ",
"                                ",
"    .   .  ...  .   . .....     ",
"    .. ..   .   ..  .   .       ",
"    . . .   .   . . .   .       ",
"    .   .   .   .  ..   .       ",
"    .   .  ...  .   .   .       ",
"                                ",
"                                ",
"                                ",
"                                "};
