/* XPM */
static char *start[] = {
/* columns rows colors chars-per-pixel */
"52 16 5 1",
"  c #000000",
". c #7788EE",
"o c #CCCCFF",
"O c #4433CC",
"x c #000000",
/* pixels */
"....................................................",
"....................................................",
"....................................................",
"...xxxxx.x...x......................................",
"...x.....x..x.......................................",
"...xxx...xxx....x.....x..xxxxxxx..x....xx..xx...xx..",
"...x.....x..x...xx...xx..xx.......xx...xx..xx...xx..",
"...x.....x...x..xxx.xxx..xx.......xxx..xx..xx...xx..",
"................xx.x.xx..xxxxx....xx.x.xx..xx...xx..",
"...xxxx..x...x..xx...xx..xx.......xx..xxx..xx...xx..",
"...x...x.xx.xx..xx...xx..xx.......xx...xx..xx...xx..",
"...xxxx..x.x.x..xx...xx..xxxxxxx..xx...xx...xxxxx...",
"...x...x.x...x......................................",
"...xxxx..x...x......................................",
"....................................................",
"...................................................."
};