/* XPM */
static char * taskbarbg_xpm[] = {
"8 25 5 1",
" 	c None",
".	c #D8D8D8",
"+	c #FFFFFF",
"@	c #FCFCFC",
"#	c #000000",
"..++@@@@",
"..@@++@@",
"@@@@++@@",
"@@@@++@@",
"++++..@@",
"++++..@@",
"@@++++@@",
"@@++++@@",
"..++@@@@",
"..@@++@@",
"@@@@++@@",
"@@@@++@@",
"++++..@@",
"++++..@@",
"@@++++@@",
"@@++++@@",
"..++@@@@",
"..@@++@@",
"@@@@++++",
"@@@@++++",
"++++..++",
"++++..@@",
"@@++++@@",
"........",
"########"};
