/* XPM */
static char* pixmap[] = {
"4 25 3 1",
" 	c #000000",
"!	c #fcfcfc",
"#	c #d8d8d8",
"!!!!",
"!!!!",
"!!!!",
"!!!!",
"!!!!",
"!!!!",
"!!!!",
"!!!!",
"!!!!",
"!!!!",
"!!!!",
"!!!!",
"!!!!",
"!!!!",
"!!!!",
"!!!!",
"!!!!",
"!!!!",
"!!!!",
"!!!!",
"!!!!",
"!!!!",
"!!!!",
"####",
"    "
};
