/* XPM */
static char *desktop[] = {
/* columns rows colors chars-per-pixel */
"20 20 10 1 ",
"  c None",
". c #333366",
"X c #444444",
"o c #777766",
"O c #DD7722",
"+ c #DD4444",
"@ c #66AA22",
"# c #DDDD55",
"$ c #8899AA",
"% c #DDEEDD",
/* pixels */
"                    ",
"                    ",
"  XXooooooooooooXX  ",
"  XXooooooooooooXX  ",
"  oo%%$$%%%%$$%%oo  ",
"  oo%%$$%%%%$$%%oo  ",
"  oo$$%%%%++%%$$oo  ",
"  oo$$%%%%++%%$$oo  ",
"  oo%%%%OO##@@%%oo  ",
"  oo%%%%OO##@@%%oo  ",
"  oo$$%%%%..%%$$oo  ",
"  oo$$%%%%..%%$$oo  ",
"  oo%%$$%%%%$$%%oo  ",
"  oo%%$$%%%%$$%%oo  ",
"  XXooooooooooooXX  ",
"  XXooooooooooooXX  ",
"                    ",
"                    ",
"                    ",
"                    "
};
