/* XPM */
static char *start[] = {
/* columns rows colors chars-per-pixel */
"20 20 11 1 ",
"  c None",
". c #110011",
"X c #442233",
"o c #333366",
"O c #444444",
"+ c #777766",
"@ c #DD7722",
"# c #DD4444",
"$ c #66AA22",
"% c #DDDD55",
"& c #66CCCC",
/* pixels */
"                    ",
"                    ",
"  ++OOOOOOOOOOOO++  ",
"  ++OOOOOOOOOOOO++  ",
"  OO####@@@@%%%%OO  ",
"  OO####@@@@%%%%OO  ",
"  OO####@@@@%%%%OO  ",
"  OO####@@@@%%%%OO  ",
"  OOoooo$$$$&&&&OO  ",
"  OOoooo$$$$&&&&OO  ",
"  OOoooo$$$$&&&&OO  ",
"  OOoooo$$$$&&&&OO  ",
"  OOXXXX..OOOOOO++  ",
"  OOXXXX..OOOOOO++  ",
"  OOXXXXOO          ",
"  OOXXXXOO          ",
"  ++OOOO++          ",
"  ++OOOO++          ",
"                    ",
"                    "
};
