/* XPM */
static char * dframeIBR_xpm[] = {
"24 24 4 1",
" 	c None",
".	c #FFFFFF",
"+	c #A0C8F0",
"@	c #000000",
"                  .++++@",
"                  .++++@",
"                  .++++@",
"                  .++++@",
"                  .++++@",
"                  .++++@",
"                  .++++@",
"                  .++++@",
"                  .++++@",
"                  .++++@",
"                  .++++@",
"                  .++++@",
"                  .++++@",
"                  .++++@",
"                  .++++@",
"                  .++++@",
"                  .++++@",
"                  .++++@",
"...................++++@",
"+++++++++++++++++++++++@",
"+++++++++++++++++++++++@",
"+++++++++++++++++++++++@",
"+++++++++++++++++++++++@",
"@@@@@@@@@@@@@@@@@@@@@@@@"};
