/* XPM */
static char * dframeITR_xpm[] = {
"24 24 4 1",
" 	c None",
".	c #000000",
"+	c #A0C8F0",
"@	c #FFFFFF",
"........................",
"+++++++++++++++++++++++.",
"+++++++++++++++++++++++.",
"+++++++++++++++++++++++.",
"+++++++++++++++++++++++.",
"@@@@@@@@@@@@@@@@@@@++++.",
"                  @++++.",
"                  @++++.",
"                  @++++.",
"                  @++++.",
"                  @++++.",
"                  @++++.",
"                  @++++.",
"                  @++++.",
"                  @++++.",
"                  @++++.",
"                  @++++.",
"                  @++++.",
"                  @++++.",
"                  @++++.",
"                  @++++.",
"                  @++++.",
"                  @++++.",
"                  @++++."};
