/* XPM */
static char * dframeIT_xpm[] = {
"1 6 4 1",
" 	c None",
".	c #000000",
"+	c #A0C8F0",
"@	c #FFFFFF",
".",
"+",
"+",
"+",
"+",
"@"};
