/* XPM */
static char * menuI_xpm[] = {
"19 38 9 1",
" 	c None",
".	c #C0C0C0",
"+	c #000000",
"@	c #F8F8F8",
"#	c #808080",
"$	c #3F3F3F",
"%	c #FFFFFF",
"&	c #070707",
"*	c #7F7F7F",
"..................+",
"..................+",
"..................+",
"..................+",
"..................+",
"..................+",
"..................+",
"......+++++++.....+",
"......+@@@@@+#....+",
"......+++++++#....+",
".......#######....+",
"..................+",
"..................+",
"..................+",
"..................+",
"..................+",
"..................+",
"..................+",
"+++++++++++++++++++",
"$$$$$$$$$$$$$$$$$$+",
"$$$$$$$$$$$$$$$$$$+",
"$$$$$$$$$$$$$$$$$$+",
"$$$$$$$$$$$$$$$$$$+",
"$$$$$$$$$$$$$$$$$$+",
"$$$$$$$$$$$$$$$$$$+",
"$$$$$$$$$$$$$$$$$$+",
"$$$$$$%%%%%%%$$$$$+",
"$$$$$$%&&&&&%*$$$$+",
"$$$$$$%%%%%%%*$$$$+",
"$$$$$$$*******$$$$+",
"$$$$$$$$$$$$$$$$$$+",
"$$$$$$$$$$$$$$$$$$+",
"$$$$$$$$$$$$$$$$$$+",
"$$$$$$$$$$$$$$$$$$+",
"$$$$$$$$$$$$$$$$$$+",
"$$$$$$$$$$$$$$$$$$+",
"$$$$$$$$$$$$$$$$$$+",
"+++++++++++++++++++"};
