/* XPM */
static char * menu_xpm[] = {
"19 38 7 1",
" 	c None",
".	c #C0C0C0",
"+	c #000000",
"@	c #F8F8F8",
"#	c #808080",
"$	c #383838",
"%	c #787878",
"..................+",
"..................+",
"..................+",
"..................+",
"..................+",
"..................+",
"..................+",
"..+++++++++++++...+",
"..+@@@@@@@@@@@+#..+",
"..+++++++++++++#..+",
"...#############..+",
"..................+",
"..................+",
"..................+",
"..................+",
"..................+",
"..................+",
"..................+",
"+++++++++++++++++++",
"$$$$$$$$$$$$$$$$$$+",
"$$$$$$$$$$$$$$$$$$+",
"$$$$$$$$$$$$$$$$$$+",
"$$$$$$$$$$$$$$$$$$+",
"$$$$$$$$$$$$$$$$$$+",
"$$$$$$$$$$$$$$$$$$+",
"$$$$$$$$$$$$$$$$$$+",
"$$@@@@@@@@@@@@@$$$+",
"$$@+++++++++++@%$$+",
"$$@@@@@@@@@@@@@%$$+",
"$$$%%%%%%%%%%%%%$$+",
"$$$$$$$$$$$$$$$$$$+",
"$$$$$$$$$$$$$$$$$$+",
"$$$$$$$$$$$$$$$$$$+",
"$$$$$$$$$$$$$$$$$$+",
"$$$$$$$$$$$$$$$$$$+",
"$$$$$$$$$$$$$$$$$$+",
"$$$$$$$$$$$$$$$$$$+",
"+++++++++++++++++++"};
