/* XPM */
static char * restore_xpm[] = {
"19 38 5 1",
" 	c None",
".	c #000000",
"+	c #F8F8F8",
"@	c #808080",
"#	c #C0C0C0",
".+++++++++++++++++@",
".+###############@@",
".+###############@@",
".+###############@@",
".+#######.#######@@",
".+######...######@@",
".+#####.....#####@@",
".+####.......####@@",
".+###############@@",
".+###############@@",
".+####.......####@@",
".+#####.....#####@@",
".+######...######@@",
".+#######.#######@@",
".+###############@@",
".+###############@@",
".+@@@@@@@@@@@@@@@@@",
".@@@@@@@@@@@@@@@@@@",
"...................",
".@@@@@@@@@@@@@@@@@@",
".@#################",
".@#################",
".@#################",
".@#################",
".@#################",
".@########.########",
".@#######...#######",
".@######.....######",
".@#####.......#####",
".@#################",
".@#################",
".@#####.......#####",
".@######.....######",
".@#######...#######",
".@########.########",
".@#################",
".@#################",
"..................."};
