/* XPM */
static char * titleAT_xpm[] = {
"1 19 3 1",
" 	c None",
".	c #A0C8F0",
"+	c #000000",
".",
".",
".",
".",
".",
".",
".",
".",
".",
".",
".",
".",
".",
".",
".",
".",
".",
".",
"+"};
