/* XPM */
static char *closeA[] = {
/* columns rows colors chars-per-pixel */
"22 48 6 1 ",
"  c #442434",
". c #30346D",
"X c #D04648",
"o c #597DCE",
"O c #D2AA99",
"+ c #DEEED6",
/* pixels */
"  ..................  ",
"  ..................  ",
"..oooooooooooooooooo..",
"..oooooooooooooooooo..",
"..ooXXXXooooooXXXXoo..",
"..ooXXXXooooooXXXXoo..",
"..ooXXXXXXooXXXXXXoo..",
"..ooXXXXXXooXXXXXXoo..",
"..ooooXXXXXXXXXXoooo..",
"..ooooXXXXXXXXXXoooo..",
"..ooooooXXXXXXoooooo..",
"..ooooooXXXXXXoooooo..",
"..ooooXXXXXXXXXXoooo..",
"..ooooXXXXXXXXXXoooo..",
"..ooXXXXXXooXXXXXXoo..",
"..ooXXXXXXooXXXXXXoo..",
"..ooXXXXooooooXXXXoo..",
"..ooXXXXooooooXXXXoo..",
"..oooooooooooooooooo..",
"..oooooooooooooooooo..",
"  ..................  ",
"  ..................  ",
"++++++++++++++++++++++",
"++++++++++++++++++++++",
"  ..................  ",
"  ..................  ",
"..oooooooooooooooooo..",
"..oooooooooooooooooo..",
"..ooOOOOooooooOOOOoo..",
"..ooOOOOooooooOOOOoo..",
"..ooOOOOOOooOOOOOOoo..",
"..ooOOOOOOooOOOOOOoo..",
"..ooooOOOOOOOOOOoooo..",
"..ooooOOOOOOOOOOoooo..",
"..ooooooOOOOOOoooooo..",
"..ooooooOOOOOOoooooo..",
"..ooooOOOOOOOOOOoooo..",
"..ooooOOOOOOOOOOoooo..",
"..ooOOOOOOooOOOOOOoo..",
"..ooOOOOOOooOOOOOOoo..",
"..ooOOOOooooooOOOOoo..",
"..ooOOOOooooooOOOOoo..",
"..oooooooooooooooooo..",
"..oooooooooooooooooo..",
"  ..................  ",
"  ..................  ",
"++++++++++++++++++++++",
"++++++++++++++++++++++"
};
