/* XPM */
static char *dframeAT[] = {
/* columns rows colors chars-per-pixel */
"2 8 3 1 ",
"  c #30346D",
". c #597DCE",
"X c #D2AA99",
/* pixels */
"  ",
"  ",
"..",
"..",
"..",
"..",
"XX",
"XX"
};
