/* XPM */
static char *dframeATL[] = {
/* columns rows colors chars-per-pixel */
"16 16 6 1 ",
"  c None",
". c #30346D",
"X c #4E4A4E",
"o c #597DCE",
"O c #8595A1",
"+ c #D2AA99",
/* pixels */
"    ............",
"    ............",
"  XXoooooooooooo",
"  XXoooooooooooo",
"..oooooooooooooo",
"..oooooooooooooo",
"..ooooOO++++++++",
"..ooooOO++++++++",
"..oooo++        ",
"..oooo++        ",
"..oooo++        ",
"..oooo++        ",
"..oooo++        ",
"..oooo++        ",
"..oooo++        ",
"..oooo++        "
};
