/* XPM */
static char *frameAL[] = {
/* columns rows colors chars-per-pixel */
"8 2 3 1 ",
"  c #30346D",
". c #597DCE",
"X c #DEEED6",
/* pixels */
"  ....XX",
"  ....XX"
};
