/* XPM */
static char *frameITR[] = {
/* columns rows colors chars-per-pixel */
"16 16 5 1 ",
"  c None",
". c #4E4A4E",
"X c #6DC2CA",
"o c #8595A1",
"O c #DEEED6",
/* pixels */
"............    ",
"............    ",
"oooooooooooo..  ",
"oooooooooooo..  ",
"oooooooooooooo..",
"oooooooooooooo..",
"OOOOOOOOXXoooo..",
"OOOOOOOOXXoooo..",
"        OOoooo..",
"        OOoooo..",
"        OOoooo..",
"        OOoooo..",
"        OOoooo..",
"        OOoooo..",
"        OOoooo..",
"        OOoooo.."
};
