/* XPM */
static char *frameABL[] = {
/* columns rows colors chars-per-pixel */
"16 16 6 1 ",
"  c None",
". c #30346D",
"X c #4E4A4E",
"o c #597DCE",
"O c #8595A1",
"+ c #DEEED6",
/* pixels */
"..oooo++        ",
"..oooo++        ",
"..oooo++        ",
"..oooo++        ",
"..oooo++        ",
"..oooo++        ",
"..oooo++        ",
"..oooo++        ",
"..ooooOO++++++++",
"..ooooOO++++++++",
"..oooooooooooooo",
"..oooooooooooooo",
"  XXoooooooooooo",
"  XXoooooooooooo",
"    ............",
"    ............"
};
