/* XPM */
static char *maximizeA[] = {
/* columns rows colors chars-per-pixel */
"22 48 7 1 ",
"  c #442434",
". c #346524",
"X c #30346D",
"o c #6DAA2C",
"O c #DAD45E",
"+ c #597DCE",
"@ c #DEEED6",
/* pixels */
"  XXXXXXXXXXXXXXXXXX  ",
"  XXXXXXXXXXXXXXXXXX  ",
"XX++++++++++++++++++XX",
"XX++++++++++++++++++XX",
"XX++++..........++++XX",
"XX++++..........++++XX",
"XX++..oooooooooo..++XX",
"XX++..oooooooooo..++XX",
"XX++..oooooooooo..++XX",
"XX++..oooooooooo..++XX",
"XX++..oooooooooo..++XX",
"XX++..oooooooooo..++XX",
"XX++..oooooooooo..++XX",
"XX++..oooooooooo..++XX",
"XX++..oooooooooo..++XX",
"XX++..oooooooooo..++XX",
"XX++++..........++++XX",
"XX++++..........++++XX",
"XX++++++++++++++++++XX",
"XX++++++++++++++++++XX",
"  XXXXXXXXXXXXXXXXXX  ",
"  XXXXXXXXXXXXXXXXXX  ",
"@@@@@@@@@@@@@@@@@@@@@@",
"@@@@@@@@@@@@@@@@@@@@@@",
"  XXXXXXXXXXXXXXXXXX  ",
"  XXXXXXXXXXXXXXXXXX  ",
"XX++++++++++++++++++XX",
"XX++++++++++++++++++XX",
"XX++++oooooooooo++++XX",
"XX++++oooooooooo++++XX",
"XX++ooOOOOOOOOOOoo++XX",
"XX++ooOOOOOOOOOOoo++XX",
"XX++ooOOOOOOOOOOoo++XX",
"XX++ooOOOOOOOOOOoo++XX",
"XX++ooOOOOOOOOOOoo++XX",
"XX++ooOOOOOOOOOOoo++XX",
"XX++ooOOOOOOOOOOoo++XX",
"XX++ooOOOOOOOOOOoo++XX",
"XX++ooOOOOOOOOOOoo++XX",
"XX++ooOOOOOOOOOOoo++XX",
"XX++++oooooooooo++++XX",
"XX++++oooooooooo++++XX",
"XX++++++++++++++++++XX",
"XX++++++++++++++++++XX",
"  XXXXXXXXXXXXXXXXXX  ",
"  XXXXXXXXXXXXXXXXXX  ",
"@@@@@@@@@@@@@@@@@@@@@@",
"@@@@@@@@@@@@@@@@@@@@@@"
};
