/* XPM */
static char *maximizeI[] = {
/* columns rows colors chars-per-pixel */
"22 48 6 1 ",
"  c #442434",
". c #346524",
"X c #4E4A4E",
"o c #6DAA2C",
"O c #8595A1",
"+ c #DEEED6",
/* pixels */
"  XXXXXXXXXXXXXXXXXX  ",
"  XXXXXXXXXXXXXXXXXX  ",
"XXOOOOOOOOOOOOOOOOOOXX",
"XXOOOOOOOOOOOOOOOOOOXX",
"XXOOOOXXXXXXXXXXOOOOXX",
"XXOOOOXXXXXXXXXXOOOOXX",
"XXOOXX..........XXOOXX",
"XXOOXX..........XXOOXX",
"XXOOXX..........XXOOXX",
"XXOOXX..........XXOOXX",
"XXOOXX..........XXOOXX",
"XXOOXX..........XXOOXX",
"XXOOXX..........XXOOXX",
"XXOOXX..........XXOOXX",
"XXOOXX..........XXOOXX",
"XXOOXX..........XXOOXX",
"XXOOOOXXXXXXXXXXOOOOXX",
"XXOOOOXXXXXXXXXXOOOOXX",
"XXOOOOOOOOOOOOOOOOOOXX",
"XXOOOOOOOOOOOOOOOOOOXX",
"  XXXXXXXXXXXXXXXXXX  ",
"  XXXXXXXXXXXXXXXXXX  ",
"++++++++++++++++++++++",
"++++++++++++++++++++++",
"  XXXXXXXXXXXXXXXXXX  ",
"  XXXXXXXXXXXXXXXXXX  ",
"XXOOOOOOOOOOOOOOOOOOXX",
"XXOOOOOOOOOOOOOOOOOOXX",
"XXOOOO..........OOOOXX",
"XXOOOO..........OOOOXX",
"XXOO..oooooooooo..OOXX",
"XXOO..oooooooooo..OOXX",
"XXOO..oooooooooo..OOXX",
"XXOO..oooooooooo..OOXX",
"XXOO..oooooooooo..OOXX",
"XXOO..oooooooooo..OOXX",
"XXOO..oooooooooo..OOXX",
"XXOO..oooooooooo..OOXX",
"XXOO..oooooooooo..OOXX",
"XXOO..oooooooooo..OOXX",
"XXOOOO..........OOOOXX",
"XXOOOO..........OOOOXX",
"XXOOOOOOOOOOOOOOOOOOXX",
"XXOOOOOOOOOOOOOOOOOOXX",
"  XXXXXXXXXXXXXXXXXX  ",
"  XXXXXXXXXXXXXXXXXX  ",
"++++++++++++++++++++++",
"++++++++++++++++++++++"
};
