/* XPM */
static char *restoreA[] = {
/* columns rows colors chars-per-pixel */
"22 48 7 1 ",
"  c #442434",
". c #346524",
"X c #30346D",
"o c #6DAA2C",
"O c #DAD45E",
"+ c #597DCE",
"@ c #DEEED6",
/* pixels */
"  XXXXXXXXXXXXXXXXXX  ",
"  XXXXXXXXXXXXXXXXXX  ",
"XX++++++++++++++++++XX",
"XX++++++++++++++++++XX",
"XX++++++++......++++XX",
"XX++++++++......++++XX",
"XX++++++..oooooo..++XX",
"XX++++++..oooooo..++XX",
"XX++++......oooo..++XX",
"XX++++......oooo..++XX",
"XX++..oooooo..oo..++XX",
"XX++..oooooo..oo..++XX",
"XX++..oooooo....++++XX",
"XX++..oooooo....++++XX",
"XX++..oooooo..++++++XX",
"XX++..oooooo..++++++XX",
"XX++++......++++++++XX",
"XX++++......++++++++XX",
"XX++++++++++++++++++XX",
"XX++++++++++++++++++XX",
"  XXXXXXXXXXXXXXXXXX  ",
"  XXXXXXXXXXXXXXXXXX  ",
"@@@@@@@@@@@@@@@@@@@@@@",
"@@@@@@@@@@@@@@@@@@@@@@",
"  XXXXXXXXXXXXXXXXXX  ",
"  XXXXXXXXXXXXXXXXXX  ",
"XX++++++++++++++++++XX",
"XX++++++++++++++++++XX",
"XX++++++++oooooo++++XX",
"XX++++++++oooooo++++XX",
"XX++++++ooOOOOOOoo++XX",
"XX++++++ooOOOOOOoo++XX",
"XX++++ooooooOOOOoo++XX",
"XX++++ooooooOOOOoo++XX",
"XX++ooOOOOOOooOOoo++XX",
"XX++ooOOOOOOooOOoo++XX",
"XX++ooOOOOOOoooo++++XX",
"XX++ooOOOOOOoooo++++XX",
"XX++ooOOOOOOoo++++++XX",
"XX++ooOOOOOOoo++++++XX",
"XX++++oooooo++++++++XX",
"XX++++oooooo++++++++XX",
"XX++++++++++++++++++XX",
"XX++++++++++++++++++XX",
"  XXXXXXXXXXXXXXXXXX  ",
"  XXXXXXXXXXXXXXXXXX  ",
"@@@@@@@@@@@@@@@@@@@@@@",
"@@@@@@@@@@@@@@@@@@@@@@"
};
