/* XPM */
static char *restoreI[] = {
/* columns rows colors chars-per-pixel */
"22 48 6 1 ",
"  c #442434",
". c #346524",
"X c #4E4A4E",
"o c #6DAA2C",
"O c #8595A1",
"+ c #DEEED6",
/* pixels */
"  XXXXXXXXXXXXXXXXXX  ",
"  XXXXXXXXXXXXXXXXXX  ",
"XXOOOOOOOOOOOOOOOOOOXX",
"XXOOOOOOOOOOOOOOOOOOXX",
"XXOOOOOOOOXXXXXXOOOOXX",
"XXOOOOOOOOXXXXXXOOOOXX",
"XXOOOOOOXX......XXOOXX",
"XXOOOOOOXX......XXOOXX",
"XXOOOOXXXXXX....XXOOXX",
"XXOOOOXXXXXX....XXOOXX",
"XXOOXX......XX..XXOOXX",
"XXOOXX......XX..XXOOXX",
"XXOOXX......XXXXOOOOXX",
"XXOOXX......XXXXOOOOXX",
"XXOOXX......XXOOOOOOXX",
"XXOOXX......XXOOOOOOXX",
"XXOOOOXXXXXXOOOOOOOOXX",
"XXOOOOXXXXXXOOOOOOOOXX",
"XXOOOOOOOOOOOOOOOOOOXX",
"XXOOOOOOOOOOOOOOOOOOXX",
"  XXXXXXXXXXXXXXXXXX  ",
"  XXXXXXXXXXXXXXXXXX  ",
"++++++++++++++++++++++",
"++++++++++++++++++++++",
"  XXXXXXXXXXXXXXXXXX  ",
"  XXXXXXXXXXXXXXXXXX  ",
"XXOOOOOOOOOOOOOOOOOOXX",
"XXOOOOOOOOOOOOOOOOOOXX",
"XXOOOOOOOO......OOOOXX",
"XXOOOOOOOO......OOOOXX",
"XXOOOOOO..oooooo..OOXX",
"XXOOOOOO..oooooo..OOXX",
"XXOOOO......oooo..OOXX",
"XXOOOO......oooo..OOXX",
"XXOO..oooooo..oo..OOXX",
"XXOO..oooooo..oo..OOXX",
"XXOO..oooooo....OOOOXX",
"XXOO..oooooo....OOOOXX",
"XXOO..oooooo..OOOOOOXX",
"XXOO..oooooo..OOOOOOXX",
"XXOOOO......OOOOOOOOXX",
"XXOOOO......OOOOOOOOXX",
"XXOOOOOOOOOOOOOOOOOOXX",
"XXOOOOOOOOOOOOOOOOOOXX",
"  XXXXXXXXXXXXXXXXXX  ",
"  XXXXXXXXXXXXXXXXXX  ",
"++++++++++++++++++++++",
"++++++++++++++++++++++"
};
