/* XPM */
static char *titleAS[] = {
/* columns rows colors chars-per-pixel */
"4 24 3 1 ",
"  c #30346D",
". c #597DCE",
"X c #DEEED6",
/* pixels */
"....",
"....",
"..  ",
"..  ",
"....",
"....",
"..  ",
"..  ",
"....",
"....",
"..  ",
"..  ",
"....",
"....",
"..  ",
"..  ",
"....",
"....",
"..  ",
"..  ",
"....",
"....",
"XXXX",
"XXXX"
};
