/* XPM */
static char *titleAP[] = {
/* columns rows colors chars-per-pixel */
"8 24 3 1 ",
"  c #30346D",
". c #597DCE",
"X c #DEEED6",
/* pixels */
"....    ",
"....    ",
"..      ",
"..      ",
"        ",
"        ",
"        ",
"        ",
"        ",
"        ",
"        ",
"        ",
"        ",
"        ",
"        ",
"        ",
"        ",
"        ",
"..      ",
"..      ",
"....    ",
"....    ",
"XXXXXXXX",
"XXXXXXXX"
};
