/* XPM */
static char *titleAT[] = {
/* columns rows colors chars-per-pixel */
"4 24 2 1 ",
"  c #30346D",
". c #DEEED6",
/* pixels */
"    ",
"    ",
"    ",
"    ",
"    ",
"    ",
"    ",
"    ",
"    ",
"    ",
"    ",
"    ",
"    ",
"    ",
"    ",
"    ",
"    ",
"    ",
"    ",
"    ",
"    ",
"    ",
"....",
"...."
};
