/* XPM */
static char *titleIT[] = {
/* columns rows colors chars-per-pixel */
"4 24 2 1 ",
"  c #757161",
". c #DEEED6",
/* pixels */
"    ",
"    ",
"    ",
"    ",
"    ",
"    ",
"    ",
"    ",
"    ",
"    ",
"    ",
"    ",
"    ",
"    ",
"    ",
"    ",
"    ",
"    ",
"    ",
"    ",
"    ",
"    ",
"....",
"...."
};
