/* XPM */
static char * close_xpm[] = {
"16 16 4 1",
" 	c None",
".	c #646964",
"+	c #508CD7",
"@	c #DCF5FF",
"++++++++++++++++",
"++++++++++++++++",
"+++@@++++++@@+++",
"++@++.++++@++.++",
"++@+++.++@+++.++",
"+++@+++.@+++.+++",
"++++@++++++.++++",
"+++++@++++.+++++",
"+++++@++++.+++++",
"++++@++++++.++++",
"+++@+++..+++.+++",
"++@+++.++.+++.++",
"++@++.++++.++.++",
"+++..++++++..+++",
"++++++++++++++++",
"++++++++++++++++"};
