/* XPM */
static char * menu_xpm[] = {
"16 16 5 1",
" 	c None",
".	c #508CD7",
"+	c #DCF5FF",
"@	c #64B964",
"#	c #E6C86E",
"................",
"..#+#.@#+++++#..",
".#++++++++++++#.",
".++#+#++++#+#++.",
".+++#++++++++++.",
".++#++.+#+++#+#.",
".++++#+@+#++++@.",
".#++#+++++.+++..",
"..+++@+++@++++#.",
".@++.+@+@+#++++.",
".#+++#+.+#++#++.",
".++++++++++++++.",
".++#+#+++#++#++.",
".#+++++++++#++#.",
"..#++#.@#++++#..",
"................"};
