/* XPM */
static char *closeA[] = {
/* columns rows colors chars-per-pixel */
"16 32 5 1",
"  c #000000",
". c #7788EE",
"o c #CCCCFF",
"O c #4433CC",
"x c #000000",
/* pixels */
"oooooooooooooooO",
"o..............O",
"o..............O",
"o..xx......xx..O",
"o..xxx....xxx..O",
"o...xxx..xxx...O",
"o....xxxxxx....O",
"o.....xxxx.....O",
"o.....xxxx.....O",
"o....xxxxxx....O",
"o...xxx..xxx...O",
"o..xxx....xxx..O",
"o..xx......xx..O",
"o..............O",
"o..............O",
"OOOOOOOOOOOOOOOO",
"OOOOOOOOOOOOOOOo",
"O..............o",
"O..............o",
"O..xx......xx..o",
"O..xxx....xxx..o",
"O...xxx..xxx...o",
"O....xxxxxx....o",
"O.....xxxx.....o",
"O.....xxxx.....o",
"O....xxxxxx....o",
"O...xxx..xxx...o",
"O..xxx....xxx..o",
"O..xx......xx..o",
"O..............o",
"O..............o",
"oooooooooooooooo"
};