/* XPM */
static char *maximizeI[] = {
/* columns rows colors chars-per-pixel */
"16 32 5 1",
"  c #000000",
". c #777788",
"o c #9999AA",
"O c #555566",
"x c #000000",
/* pixels */
"oooooooooooooooO",
"o..............O",
"o..............O",
"o..xxxxxxxxxx..O",
"o..xxxxxxxxxx..O",
"o..x........x..O",
"o..x........x..O",
"o..x........x..O",
"o..x........x..O",
"o..x........x..O",
"o..x........x..O",
"o..x........x..O",
"o..xxxxxxxxxx..O",
"o..............O",
"o..............O",
"OOOOOOOOOOOOOOOO",
"OOOOOOOOOOOOOOOo",
"O..............o",
"O..............o",
"O..xxxxxxxxxx..o",
"O..xxxxxxxxxx..o",
"O..x........x..o",
"O..x........x..o",
"O..x........x..o",
"O..x........x..o",
"O..x........x..o",
"O..x........x..o",
"O..x........x..o",
"O..xxxxxxxxxx..o",
"O..............o",
"O..............o",
"oooooooooooooooo"
};