/* XPM */
static char *minimizeA[] = {
/* columns rows colors chars-per-pixel */
"16 32 5 1",
"  c #000000",
". c #7788EE",
"o c #CCCCFF",
"O c #4433CC",
"x c #000000",
/* pixels */
"oooooooooooooooO",
"o..............O",
"o..............O",
"o..............O",
"o..............O",
"o..............O",
"o..............O",
"o..............O",
"o..............O",
"o..............O",
"o...xxxxxxx....O",
"o...xxxxxxx....O",
"o..............O",
"o..............O",
"o..............O",
"OOOOOOOOOOOOOOOO",
"OOOOOOOOOOOOOOOo",
"O..............o",
"O..............o",
"O..............o",
"O..............o",
"O..............o",
"O..............o",
"O..............o",
"O..............o",
"O..............o",
"O...xxxxxxx....o",
"O...xxxxxxx....o",
"O..............o",
"O..............o",
"O..............o",
"oooooooooooooooo"
};