/* XPM */
static char *restoreA[] = {
/* columns rows colors chars-per-pixel */
"16 32 5 1",
"  c #000000",
". c #7788EE",
"o c #CCCCFF",
"O c #4433CC",
"x c #000000",
/* pixels */
"oooooooooooooooO",
"o..............O",
"o..............O",
"o......xxxxxx..O",
"o......xxxxxx..O",
"o......x....x..O",
"o..xxxxxxx..x..O",
"o..xxxxxxx..x..O",
"o..x.....xxxx..O",
"o..x.....x.....O",
"o..x.....x.....O",
"o..x.....x.....O",
"o..xxxxxxx.....O",
"o..............O",
"o..............O",
"OOOOOOOOOOOOOOOO",
"OOOOOOOOOOOOOOOo",
"O..............o",
"O..............o",
"O......xxxxxx..o",
"O......xxxxxx..o",
"O......x....x..o",
"O..xxxxxxx..x..o",
"O..xxxxxxx..x..o",
"O..x.....xxxx..o",
"O..x.....x.....o",
"O..x.....x.....o",
"O..x.....x.....o",
"O..xxxxxxx.....o",
"O..............o",
"O..............o",
"oooooooooooooooo"
};