/* XPM */
static char *titleIL[] = {
/* columns rows colors chars-per-pixel */
"2 16 5 1",
"  c #000000",
". c #777788",
"o c #9999AA",
"O c #555566",
"x c #000000",
/* pixels */
"oo",
"oO",
"oO",
"oO",
"oO",
"oO",
"oO",
"oO",
"oO",
"oO",
"oO",
"oO",
"oO",
"oO",
"oO",
"oO"
};