/* XPM */
static char *titleAS[] = {
/* columns rows colors chars-per-pixel */
"1 16 5 1",
"  c #000000",
". c #7788EE",
"o c #CCCCFF",
"O c #4433CC",
"x c #000000",
/* pixels */
"o",
"O",
".",
".",
".",
".",
".",
".",
".",
".",
".",
".",
".",
".",
"o",
"O"
};