/* XPM */
static char *titleIR[] = {
/* columns rows colors chars-per-pixel */
"2 16 5 1",
"  c #000000",
". c #777788",
"o c #9999AA",
"O c #555566",
"x c #000000",
/* pixels */
"oo",
"OO",
"oO",
"oO",
"oO",
"oO",
"oO",
"oO",
"oO",
"oO",
"oO",
"oO",
"oO",
"oO",
"oO",
"OO"
};