/* XPM */
static char* pixmap[] = {
"15 21 7 1",
" 	c #fcfcfc",
"!	c #d8d8d8",
"#	c #b4b4b4",
"$	c #909090",
"%	c #6c6c6c",
"&	c #484848",
"'	c #242424",
"               ",
"  ''''''''''   ",
" ' ''''''''$'  ",
" '' $$$$$$$''$ ",
" ''$       ''$ ",
" ''$       ''$ ",
" ''$       ''$ ",
" ''$       ''$ ",
" '$$        '$ ",
"  '''''''''' $ ",
"  ''''''''''$  ",
" ' $$$$$$$$$'  ",
" ''        ''$ ",
" ''$       ''$ ",
" ''$       ''$ ",
" ''$       ''$ ",
" ''$       ''$ ",
" '$'''''''' '$ ",
"  '''''''''' $ ",
"   $$$$$$$$$$  ",
"               "
};
