/* XPM */
static char * closeI_xpm[] = {
"20 40 4 1",
" 	c None",
".	c #FFFFFF",
"+	c #000000",
"@	c #AA0000",
"....................",
"....................",
"....................",
"....................",
"....................",
"....................",
"....................",
"....................",
"....................",
"....................",
"....................",
"....................",
"....................",
"....................",
"....................",
"....................",
"....................",
"....................",
"++++++++++++++++++++",
"++++++++++++++++++++",
"....................",
"....................",
"......@@@@@@@@......",
"......@@@@@@@@......",
"..@@....@@@@....@@..",
"..@@....@@@@....@@..",
"..@@@@........@@@@..",
"..@@@@........@@@@..",
"..@@@@@@....@@@@@@..",
"..@@@@@@....@@@@@@..",
"..@@@@........@@@@..",
"..@@@@........@@@@..",
"..@@....@@@@....@@..",
"..@@....@@@@....@@..",
"......@@@@@@@@......",
"......@@@@@@@@......",
"....................",
"....................",
"++++++++++++++++++++",
"++++++++++++++++++++"};
