/* XPM */
static char * dframeAT_xpm[] = {
"16 8 3 1",
" 	c None",
".	c #000000",
"+	c #FFFFFF",
"................",
"................",
"++++++++++++++++",
"++++++++++++++++",
"++++++++++++++++",
"++++++++++++++++",
"................",
"................"};
