/* XPM */
static char* pixmap[] = {
"6 16 2 1",
" 	c None",
"!	c #000000",
"    !!",
"    !!",
"    !!",
"    !!",
"    !!",
"    !!",
"    !!",
"    !!",
"    !!",
"    !!",
"    !!",
"    !!",
"    !!",
"    !!",
"    !!",
"    !!"
};
