/* XPM */
static char * frameIT_xpm[] = {
"16 6 2 1",
" 	c None",
".	c #000000",
"                ",
"                ",
"                ",
"                ",
"................",
"................"};
