/* XPM */
static char * maximizeI_xpm[] = {
"20 40 4 1",
" 	c None",
".	c #FFFFFF",
"+	c #000000",
"@	c #00AA00",
"....................",
"....................",
"....................",
"....................",
"....................",
"....................",
"....................",
"....................",
"....................",
"....................",
"....................",
"....................",
"....................",
"....................",
"....................",
"....................",
"....................",
"....................",
"++++++++++++++++++++",
"++++++++++++++++++++",
"....................",
"....................",
"..@@@@@@....@@@@@@..",
"..@@@@@@....@@@@@@..",
"..@@@@........@@@@..",
"..@@@@........@@@@..",
"..@@....@@@@....@@..",
"..@@....@@@@....@@..",
"......@@@@@@@@......",
"......@@@@@@@@......",
"..@@....@@@@....@@..",
"..@@....@@@@....@@..",
"..@@@@........@@@@..",
"..@@@@........@@@@..",
"..@@@@@@....@@@@@@..",
"..@@@@@@....@@@@@@..",
"....................",
"....................",
"++++++++++++++++++++",
"++++++++++++++++++++"};
