/* XPM */
static char * titleIB_xpm[] = {
"4 20 3 1",
" 	c None",
".	c #FFFFFF",
"+	c #000000",
"....",
"....",
"....",
"....",
"....",
"....",
"....",
"....",
"....",
"....",
"....",
"....",
"....",
"....",
"....",
"....",
"....",
"....",
"++++",
"++++"};
