/* XPM */
static char * titleAB_xpm[] = {
"4 20 3 1",
" 	c None",
".	c #000000",
"+	c #FFFFFF",
"..++",
"..++",
"++++",
"++++",
"..++",
"..++",
"++++",
"++++",
"..++",
"..++",
"++++",
"++++",
"..++",
"..++",
"++++",
"++++",
"..++",
"..++",
"....",
"...."};
