/* XPM */
static char * linux_xpm[] = {
"56 20 221 2",
"  	c None",
". 	c #C0C0C0",
"+ 	c #BCBCBC",
"@ 	c #BDBDBD",
"# 	c #BEBEBE",
"$ 	c #FFFFFF",
"% 	c #FEFEFE",
"& 	c #FDFDFD",
"* 	c #FBFBFB",
"= 	c #D6D6D6",
"- 	c #A0A0A0",
"; 	c #E2FCC8",
"> 	c #D6FBB0",
", 	c #D6FAB1",
"' 	c #D3F8AE",
") 	c #D1F6AA",
"! 	c #CEF4A7",
"~ 	c #CBF2A4",
"{ 	c #C9F0A1",
"] 	c #C6EE9D",
"^ 	c #C6ED9E",
"/ 	c #EDF9E0",
"( 	c #DFDFDF",
"_ 	c #B9B9B9",
": 	c #D8FBB5",
"< 	c #C7F994",
"[ 	c #C3F68F",
"} 	c #C3F294",
"| 	c #BCEF87",
"1 	c #B5ED7C",
"2 	c #B0EA75",
"3 	c #ABE76F",
"4 	c #A7E469",
"5 	c #A2E162",
"6 	c #9DDE5C",
"7 	c #99DB56",
"8 	c #D5D5D5",
"9 	c #BFBFBF",
"0 	c #B6B6B6",
"a 	c #000000",
"b 	c #141414",
"c 	c #494949",
"d 	c #A1A1A1",
"e 	c #5C5C5C",
"f 	c #EFF9E4",
"g 	c #D6F0BC",
"h 	c #B2E380",
"i 	c #FAFDF7",
"j 	c #D1EEB3",
"k 	c #AEE674",
"l 	c #ACE770",
"m 	c #A8E36D",
"n 	c #A3E163",
"o 	c #9EDE5D",
"p 	c #9CDA5D",
"q 	c #95D850",
"r 	c #90D54B",
"s 	c #ADADAD",
"t 	c #121212",
"u 	c #4D4D4D",
"v 	c #4C4C4C",
"w 	c #292929",
"x 	c #616161",
"y 	c #AEAEAE",
"z 	c #858585",
"A 	c #DCDCDC",
"B 	c #DBDBDB",
"C 	c #ADDE7A",
"D 	c #CDEAB0",
"E 	c #A5DD6C",
"F 	c #FEFFFE",
"G 	c #8CD245",
"H 	c #B1B1B1",
"I 	c #2C2C2C",
"J 	c #3F3F3F",
"K 	c #969696",
"L 	c #272727",
"M 	c #070707",
"N 	c #2A2A2A",
"O 	c #9C9C9C",
"P 	c #8D8D8D",
"Q 	c #181818",
"R 	c #0B0B0B",
"S 	c #676767",
"T 	c #535353",
"U 	c #959595",
"V 	c #4E4E4E",
"W 	c #2B2B2B",
"X 	c #090909",
"Y 	c #3A3A3A",
"Z 	c #B8B8B8",
"` 	c #B7B7B7",
" .	c #A8DA75",
"..	c #CAE8AC",
"+.	c #A0D966",
"@.	c #9AD85C",
"#.	c #E0F4CB",
"$.	c #FCFDFA",
"%.	c #91D64C",
"&.	c #9FD766",
"*.	c #949494",
"=.	c #B3B3B3",
"-.	c #0C0C0C",
";.	c #202020",
">.	c #6D6D6D",
",.	c #1B1B1B",
"'.	c #0F0F0F",
").	c #B5B5B5",
"!.	c #171717",
"~.	c #6A6A6A",
"{.	c #1E1E1E",
"].	c #656565",
"^.	c #3C3C3C",
"/.	c #6F6F6F",
"(.	c #A3D56F",
"_.	c #F9FCF6",
":.	c #C7E5A9",
"<.	c #9AD360",
"[.	c #95D356",
"}.	c #D5EEBC",
"|.	c #F7FBF3",
"1.	c #8DD347",
"2.	c #A2D86B",
"3.	c #161616",
"4.	c #797979",
"5.	c #868686",
"6.	c #7E7E7E",
"7.	c #808080",
"8.	c #818181",
"9.	c #5D5D5D",
"0.	c #A5A5A5",
"a.	c #525252",
"b.	c #9ED16A",
"c.	c #C5E3A6",
"d.	c #95CF5B",
"e.	c #90CE50",
"f.	c #D3ECB9",
"g.	c #89D141",
"h.	c #A3D86C",
"i.	c #0D0D0D",
"j.	c #636363",
"k.	c #666666",
"l.	c #686868",
"m.	c #AAAAAA",
"n.	c #505050",
"o.	c #9ACD65",
"p.	c #C2E1A4",
"q.	c #91CA56",
"r.	c #AFD984",
"s.	c #8AC94A",
"t.	c #9ED367",
"u.	c #A7D975",
"v.	c #87CF3E",
"w.	c #D8EBC6",
"x.	c #99D45F",
"y.	c #0E0E0E",
"z.	c #747474",
"A.	c #9B9B9B",
"B.	c #999999",
"C.	c #8F8F8F",
"D.	c #A9A9A9",
"E.	c #737373",
"F.	c #7C7C7C",
"G.	c #929292",
"H.	c #98CB63",
"I.	c #E7F3DA",
"J.	c #F3F8EE",
"K.	c #8CC651",
"L.	c #89C64B",
"M.	c #86C546",
"N.	c #82C43F",
"O.	c #81C53C",
"P.	c #CAE4B2",
"Q.	c #8CD047",
"R.	c #333333",
"S.	c #404040",
"T.	c #2F2F2F",
"U.	c #727272",
"V.	c #030303",
"W.	c #9F9F9F",
"X.	c #ACACAC",
"Y.	c #050505",
"Z.	c #545454",
"`.	c #EEEEEE",
" +	c #E5F3D6",
".+	c #8EC457",
"++	c #C5E2A9",
"@+	c #3D3D3D",
"#+	c #8C8C8C",
"$+	c #222222",
"%+	c #060606",
"&+	c #242424",
"*+	c #8A8A8A",
"=+	c #838383",
"-+	c #191919",
";+	c #101010",
">+	c #646464",
",+	c #A7A7A7",
"'+	c #A8D37C",
")+	c #87C04D",
"!+	c #92C65E",
"~+	c #91C65B",
"{+	c #88C24C",
"]+	c #88C44C",
"^+	c #88C54C",
"/+	c #80C23D",
"(+	c #FFFFFE",
"_+	c #5B5B5B",
":+	c #A6D17B",
"<+	c #8DC454",
"[+	c #8CC453",
"}+	c #8DC652",
"|+	c #8DC752",
"1+	c #8EC953",
"2+	c #8FCA53",
"3+	c #B0DB84",
"4+	c #909090",
"5+	c #080808",
"6+	c #464646",
"7+	c #B2B2B2",
"8+	c #CFCFCF",
". . . . . . . . . . . . . . . . . . . . . . . . . . . . . . . . . . . . . . . . . . . . . . . . . . . . . . . . ",
". . . . . . . . . . . . . . . . . . . . . . . . . . . . . . . . . . . . . . . . . . . . . . . . . . . . . . . . ",
". . . + + + @ @ @ @ @ @ @ # . . . . . . . . . . . . . . . . . . . . . . . . . . . . . . . . . . . . . . . . . . ",
". . + $ $ $ $ $ $ $ % & % * = - @ . . . . . . . . . . . . . . . . . . . . . . . . . . . . . . . . . . . . . . . ",
". . + $ ; > , ' ) ! ~ { ] ^ / $ ( _ . . . . . . . . . . . . . . . . . . . . . . . . . . . . . . . . . . . . . . ",
". . + $ : < [ } | 1 2 3 4 5 6 7 $ 8 9 . 0 a a a a b c _ . . . . . . . . . . . . . . . d a e . . . . . . . . . . ",
". . + $ f g h i j k l m n o p q r $ s . 0 a t u v w a x . . . . . . . . . . . . . . . y u z . . . . . . . . . . ",
". . + A B $ C i D E F $ $ $ $ $ G $ H . 0 a I . . H a J . . K L M N O . . P Q R S a T d a e . U a V W X Y Z . . ",
". . . . ` $  .i ..+.$ @.#.$.%.$ &.F @ . 0 a t u u w R *.. =.-.;.>.,.'.).).-.!.~.{.a T d a e . U a -.].^.a /.. . ",
". . . . ` $ (._.:.<.$ [.}.|.1.$ 2.F @ . 0 a a a a a 3.d . 4.a 5.. 6.a 7.4.a 8.. K a T d a e . U a 9.. 0.a a.. . ",
". . . . ` $ b._.c.d.$ e.f.|.g.$ h.F @ . 0 a I . . 0.i.N . j.a a a a a k.j.a O . 0 a T d a e . U a l.. m.a n.. . ",
". . . . ` $ o._.p.q.r.s.t.u.v.w.x.F @ . 0 a I . . . {.y.. z.a 4.A.B.C.D.E.a F.. G.a T d a e . U a l.. m.a n.. . ",
". . . . _ $ H.I.J.K.L.M.N.O.v.P.Q.F @ . 0 a t u u R.a S.. s M T.U.T.V.W.X.Y.'.Z.b a T d a e . U a l.. m.a n.. . ",
". . . . 9 `. +.+$ $ $ P.P.P.P.++v.F @ . 0 a a a a X @+y . . #+$+%+&+*+. . =+-+;+>+a T d a e . U a l.. m.a n.. . ",
". . . . . ,+$ '+)+!+~+{+]+^+/+O.v.(+@ . . . . . . . . . . . . . . . . . . . . . y a _+. . . . . . . . . . . . . ",
". . . . . . m.$ _.:+<+[+}+|+1+2+3+$ @ . . . . . . . . . . . . . . . . . 4+5+^.K 6+a *+. . . . . . . . . . . . . ",
". . . . . . . 7+8+$ $ $ $ $ $ $ $ $ @ . . . . . . . . . . . . . . . . . . S Q Y.,./.. . . . . . . . . . . . . . ",
". . . . . . . . . 9 # # # # # # # # 9 . . . . . . . . . . . . . . . . . . . . . . . . . . . . . . . . . . . . . ",
". . . . . . . . . . . . . . . . . . . . . . . . . . . . . . . . . . . . . . . . . . . . . . . . . . . . . . . . ",
". . . . . . . . . . . . . . . . . . . . . . . . . . . . . . . . . . . . . . . . . . . . . . . . . . . . . . . . "};
