/* XPM */
static char *n8[] = {
/* columns rows colors chars-per-pixel */
"12 20 256 2 ",
"   c #111122",
".  c #442233",
"X  c #333366",
"o  c #554455",
"O  c #884433",
"+  c #336622",
"@  c #CC4444",
"#  c #777766",
"$  c #5577CC",
"%  c #CC7733",
"&  c #889999",
"*  c #66AA33",
"=  c #CCAA99",
"-  c #66BBCC",
";  c #DDCC66",
":  c #DDEEDD",
">  c #111122",
",  c #111122",
"<  c #111122",
"1  c #111122",
"2  c #111122",
"3  c #111122",
"4  c #111122",
"5  c #111122",
"6  c #111122",
"7  c #111122",
"8  c #111122",
"9  c #111122",
"0  c #111122",
"q  c #111122",
"w  c #111122",
"e  c #111122",
"r  c #111122",
"t  c #111122",
"y  c #111122",
"u  c #111122",
"i  c #111122",
"p  c #111122",
"a  c #111122",
"s  c #111122",
"d  c #111122",
"f  c #111122",
"g  c #111122",
"h  c #111122",
"j  c #111122",
"k  c #111122",
"l  c #111122",
"z  c #111122",
"x  c #111122",
"c  c #111122",
"v  c #111122",
"b  c #111122",
"n  c #111122",
"m  c #111122",
"M  c #111122",
"N  c #111122",
"B  c #111122",
"V  c #111122",
"C  c #111122",
"Z  c #111122",
"A  c #111122",
"S  c #111122",
"D  c #111122",
"F  c #111122",
"G  c #111122",
"H  c #111122",
"J  c #111122",
"K  c #111122",
"L  c #111122",
"P  c #111122",
"I  c #111122",
"U  c #111122",
"Y  c #111122",
"T  c #111122",
"R  c #111122",
"E  c #111122",
"W  c #111122",
"Q  c #111122",
"!  c #111122",
"~  c #111122",
"^  c #111122",
"/  c #111122",
"(  c #111122",
")  c #111122",
"_  c #111122",
"`  c #111122",
"'  c #111122",
"]  c #111122",
"[  c #111122",
"{  c #111122",
"}  c #111122",
"|  c #111122",
" . c #111122",
".. c #111122",
"X. c #111122",
"o. c #111122",
"O. c #111122",
"+. c #111122",
"@. c #111122",
"#. c #111122",
"$. c #111122",
"%. c #111122",
"&. c #111122",
"*. c #111122",
"=. c #111122",
"-. c #111122",
";. c #111122",
":. c #111122",
">. c #111122",
",. c #111122",
"<. c #111122",
"1. c #111122",
"2. c #111122",
"3. c #111122",
"4. c #111122",
"5. c #111122",
"6. c #111122",
"7. c #111122",
"8. c #111122",
"9. c #111122",
"0. c #111122",
"q. c #111122",
"w. c #111122",
"e. c #111122",
"r. c #111122",
"t. c #111122",
"y. c #111122",
"u. c #111122",
"i. c #111122",
"p. c #111122",
"a. c #111122",
"s. c #111122",
"d. c #111122",
"f. c #111122",
"g. c #111122",
"h. c #111122",
"j. c #111122",
"k. c #111122",
"l. c #111122",
"z. c #111122",
"x. c #111122",
"c. c #111122",
"v. c #111122",
"b. c #111122",
"n. c #111122",
"m. c #111122",
"M. c #111122",
"N. c #111122",
"B. c #111122",
"V. c #111122",
"C. c #111122",
"Z. c #111122",
"A. c #111122",
"S. c #111122",
"D. c #111122",
"F. c #111122",
"G. c #111122",
"H. c #111122",
"J. c #111122",
"K. c #111122",
"L. c #111122",
"P. c #111122",
"I. c #111122",
"U. c #111122",
"Y. c #111122",
"T. c #111122",
"R. c #111122",
"E. c #111122",
"W. c #111122",
"Q. c #111122",
"!. c #111122",
"~. c #111122",
"^. c #111122",
"/. c #111122",
"(. c #111122",
"). c #111122",
"_. c #111122",
"`. c #111122",
"'. c #111122",
"]. c #111122",
"[. c #111122",
"{. c #111122",
"}. c #111122",
"|. c #111122",
" X c #111122",
".X c #111122",
"XX c #111122",
"oX c #111122",
"OX c #111122",
"+X c #111122",
"@X c #111122",
"#X c #111122",
"$X c #111122",
"%X c #111122",
"&X c #111122",
"*X c #111122",
"=X c #111122",
"-X c #111122",
";X c #111122",
":X c #111122",
">X c #111122",
",X c #111122",
"<X c #111122",
"1X c #111122",
"2X c #111122",
"3X c #111122",
"4X c #111122",
"5X c #111122",
"6X c #111122",
"7X c #111122",
"8X c #111122",
"9X c #111122",
"0X c #111122",
"qX c #111122",
"wX c #111122",
"eX c #111122",
"rX c #111122",
"tX c #111122",
"yX c #111122",
"uX c #111122",
"iX c #111122",
"pX c #111122",
"aX c #111122",
"sX c #111122",
"dX c #111122",
"fX c #111122",
"gX c #111122",
"hX c #111122",
"jX c #111122",
"kX c #111122",
"lX c #111122",
"zX c #111122",
"xX c #111122",
"cX c #111122",
"vX c #111122",
"bX c #111122",
"nX c #111122",
"mX c #111122",
"MX c #111122",
"NX c #111122",
"BX c #111122",
"VX c #111122",
"CX c #111122",
"ZX c #111122",
"AX c #111122",
"SX c #111122",
"DX c #111122",
"FX c #111122",
"GX c #111122",
"HX c #111122",
"JX c #111122",
"KX c #111122",
"LX c black",
"PX c #6D6D6D",
"IX c #AAAAAA",
"UX c white",
/* pixels */
"X X X X X X X X X X X X ",
"X X X X X X X X X X X X ",
"X X * * * * * * X X X X ",
"X X * * * * * * X X X X ",
"* * + + + + + + * * X X ",
"* * + + + + + + * * X X ",
"* * X X X X X X * * X X ",
"* * X X X X X X * * X X ",
"+ + * * * * * * + + X X ",
"+ + * * * * * * + + X X ",
"* * + + + + + + * * X X ",
"* * + + + + + + * * X X ",
"* * X X X X X X * * X X ",
"* * X X X X X X * * X X ",
"+ + * * * * * * + + X X ",
"+ + * * * * * * + + X X ",
"X X + + + + + + X X X X ",
"X X + + + + + + X X X X ",
"X X X X X X X X X X X X ",
"X X X X X X X X X X X X "
};
